<svg width="500" height="500" viewBox="0 0 500 500" fill="none" xmlns="http://www.w3.org/2000/svg">
<path d="M32 15.0917C32 6.75677 25.2843 0 17 0C8.71572 0 2 6.75677 2 15.0917C2 22.6242 7.48525 28.8678 14.6562 30V19.4541H10.8477V15.0917H14.6562V11.7668C14.6562 7.98444 16.8957 5.89518 20.322 5.89518C21.9626 5.89518 23.6797 6.18994 23.6797 6.18994V9.90391H21.7883C19.925 9.90391 19.3438 11.0673 19.3438 12.262V15.0917H23.5039L22.8389 19.4541H19.3438V30C26.5147 28.8678 32 22.6242 32 15.0917Z" fill="black"/>
<path d="M65 2.70117C69.0078 2.70117 69.4824 2.71875 71.0586 2.78906C72.5234 2.85352 73.3145 3.09961 73.8418 3.30469C74.5391 3.57422 75.043 3.90234 75.5645 4.42383C76.0918 4.95117 76.4141 5.44922 76.6836 6.14648C76.8887 6.67383 77.1348 7.4707 77.1992 8.92969C77.2695 10.5117 77.2871 10.9863 77.2871 14.9883C77.2871 18.9961 77.2695 19.4707 77.1992 21.0469C77.1348 22.5117 76.8887 23.3027 76.6836 23.8301C76.4141 24.5273 76.0859 25.0313 75.5645 25.5527C75.0371 26.0801 74.5391 26.4023 73.8418 26.6719C73.3145 26.877 72.5176 27.123 71.0586 27.1875C69.4766 27.2578 69.002 27.2754 65 27.2754C60.9922 27.2754 60.5176 27.2578 58.9414 27.1875C57.4766 27.123 56.6855 26.877 56.1582 26.6719C55.4609 26.4023 54.957 26.0742 54.4355 25.5527C53.9082 25.0254 53.5859 24.5273 53.3164 23.8301C53.1113 23.3027 52.8652 22.5059 52.8008 21.0469C52.7305 19.4648 52.7129 18.9902 52.7129 14.9883C52.7129 10.9805 52.7305 10.5059 52.8008 8.92969C52.8652 7.46484 53.1113 6.67383 53.3164 6.14648C53.5859 5.44922 53.9141 4.94531 54.4355 4.42383C54.9629 3.89648 55.4609 3.57422 56.1582 3.30469C56.6855 3.09961 57.4824 2.85352 58.9414 2.78906C60.5176 2.71875 60.9922 2.70117 65 2.70117ZM65 0C60.9277 0 60.418 0.0175781 58.8184 0.0878906C57.2246 0.158203 56.1289 0.416016 55.1797 0.785156C54.1895 1.17187 53.3516 1.68164 52.5195 2.51953C51.6816 3.35156 51.1719 4.18945 50.7852 5.17383C50.416 6.12891 50.1582 7.21875 50.0879 8.8125C50.0176 10.418 50 10.9277 50 15C50 19.0723 50.0176 19.582 50.0879 21.1816C50.1582 22.7754 50.416 23.8711 50.7852 24.8203C51.1719 25.8105 51.6816 26.6484 52.5195 27.4805C53.3516 28.3125 54.1895 28.8281 55.1738 29.209C56.1289 29.5781 57.2188 29.8359 58.8125 29.9062C60.4121 29.9766 60.9219 29.9941 64.9941 29.9941C69.0664 29.9941 69.5762 29.9766 71.1758 29.9062C72.7695 29.8359 73.8652 29.5781 74.8145 29.209C75.7988 28.8281 76.6367 28.3125 77.4688 27.4805C78.3008 26.6484 78.8164 25.8105 79.1973 24.8262C79.5664 23.8711 79.8242 22.7813 79.8945 21.1875C79.9648 19.5879 79.9824 19.0781 79.9824 15.0059C79.9824 10.9336 79.9648 10.4238 79.8945 8.82422C79.8242 7.23047 79.5664 6.13477 79.1973 5.18555C78.8281 4.18945 78.3184 3.35156 77.4805 2.51953C76.6484 1.6875 75.8105 1.17188 74.8262 0.791016C73.8711 0.421875 72.7813 0.164063 71.1875 0.09375C69.582 0.0175781 69.0723 0 65 0Z" fill="black"/>
<path d="M65 7.29492C60.7461 7.29492 57.2949 10.7461 57.2949 15C57.2949 19.2539 60.7461 22.7051 65 22.7051C69.2539 22.7051 72.7051 19.2539 72.7051 15C72.7051 10.7461 69.2539 7.29492 65 7.29492ZM65 19.998C62.2402 19.998 60.002 17.7598 60.002 15C60.002 12.2402 62.2402 10.002 65 10.002C67.7598 10.002 69.998 12.2402 69.998 15C69.998 17.7598 67.7598 19.998 65 19.998Z" fill="black"/>
<path d="M74.8086 6.99024C74.8086 7.98633 74 8.78907 73.0098 8.78907C72.0137 8.78907 71.2109 7.98047 71.2109 6.99024C71.2109 5.99414 72.0195 5.19141 73.0098 5.19141C74 5.19141 74.8086 6 74.8086 6.99024Z" fill="black"/>
<g clip-path="url(#clip0_438_4)">
<path fill-rule="evenodd" clip-rule="evenodd" d="M115 0.625C111.439 0.626848 107.995 1.88807 105.284 4.18315C102.572 6.47823 100.77 9.65751 100.199 13.1525C99.629 16.6475 100.327 20.2303 102.17 23.2602C104.012 26.2902 106.879 28.5697 110.256 29.6912C111.001 29.8295 111.282 29.3677 111.282 28.975C111.282 28.5823 111.267 27.4438 111.262 26.199C107.089 27.1005 106.207 24.4381 106.207 24.4381C105.527 22.7093 104.543 22.2549 104.543 22.2549C103.182 21.3312 104.645 21.3485 104.645 21.3485C106.153 21.4547 106.945 22.8871 106.945 22.8871C108.281 25.1667 110.455 24.5073 111.309 24.122C111.443 23.1563 111.833 22.4994 112.263 22.1264C108.93 21.751 105.428 20.4717 105.428 14.7568C105.407 13.2746 105.96 11.8413 106.972 10.7534C106.818 10.378 106.304 8.86154 107.119 6.80179C107.119 6.80179 108.378 6.40169 111.245 8.33055C113.703 7.66203 116.297 7.66203 118.756 8.33055C121.62 6.40169 122.877 6.80179 122.877 6.80179C123.694 8.8566 123.18 10.373 123.026 10.7534C124.041 11.8415 124.596 13.2773 124.573 14.7617C124.573 20.489 121.063 21.751 117.725 22.119C118.262 22.5833 118.741 23.4897 118.741 24.8827C118.741 26.8782 118.724 28.4835 118.724 28.975C118.724 29.3726 118.994 29.8369 119.754 29.6912C123.132 28.5696 125.999 26.2896 127.841 23.2592C129.684 20.2287 130.382 16.6454 129.811 13.1501C129.24 9.65475 127.437 6.47544 124.724 4.18076C122.012 1.88607 118.567 0.625676 115.005 0.625H115Z" fill="#191717"/>
<path d="M105.681 22.04C105.648 22.1141 105.529 22.1364 105.432 22.0845C105.335 22.0326 105.263 21.9363 105.298 21.8597C105.333 21.7832 105.45 21.7634 105.546 21.8153C105.643 21.8672 105.718 21.9659 105.681 22.04Z" fill="#191717"/>
<path d="M106.289 22.7142C106.238 22.7399 106.179 22.7471 106.123 22.7345C106.066 22.7219 106.016 22.6903 105.981 22.645C105.884 22.5413 105.864 22.398 105.939 22.3338C106.013 22.2696 106.148 22.2993 106.244 22.403C106.341 22.5067 106.364 22.65 106.289 22.7142Z" fill="#191717"/>
<path d="M106.88 23.5712C106.788 23.6354 106.632 23.5712 106.545 23.4428C106.521 23.4198 106.502 23.3921 106.489 23.3616C106.476 23.331 106.469 23.2982 106.469 23.265C106.469 23.2318 106.476 23.1989 106.489 23.1684C106.502 23.1378 106.521 23.1102 106.545 23.0872C106.637 23.0254 106.793 23.0872 106.88 23.2131C106.967 23.3391 106.97 23.507 106.88 23.5712V23.5712Z" fill="#191717"/>
<path d="M107.683 24.4011C107.601 24.4924 107.434 24.4677 107.298 24.3443C107.161 24.2208 107.129 24.0528 107.211 23.9639C107.293 23.875 107.459 23.8997 107.601 24.0207C107.742 24.1417 107.77 24.3121 107.683 24.4011V24.4011Z" fill="#191717"/>
<path d="M108.808 24.8851C108.77 25.0012 108.602 25.0531 108.433 25.0037C108.264 24.9543 108.152 24.816 108.184 24.6974C108.217 24.5789 108.388 24.5245 108.559 24.5789C108.731 24.6332 108.84 24.7641 108.808 24.8851Z" fill="#191717"/>
<path d="M110.035 24.9691C110.035 25.0901 109.896 25.1938 109.717 25.1963C109.538 25.1988 109.391 25.1 109.391 24.979C109.391 24.858 109.531 24.7542 109.709 24.7518C109.888 24.7493 110.035 24.8456 110.035 24.9691Z" fill="#191717"/>
<path d="M111.177 24.7789C111.2 24.8999 111.076 25.0259 110.897 25.0555C110.718 25.0851 110.561 25.0135 110.539 24.895C110.517 24.7764 110.646 24.648 110.82 24.6159C110.994 24.5838 111.155 24.6579 111.177 24.7789Z" fill="#191717"/>
</g>
<path d="M160.36 13.585C159.505 13.585 158.83 14.335 158.83 15.25C158.83 16.165 159.52 16.915 160.36 16.915C161.215 16.915 161.89 16.165 161.89 15.25C161.905 14.335 161.215 13.585 160.36 13.585ZM165.835 13.585C164.98 13.585 164.305 14.335 164.305 15.25C164.305 16.165 164.995 16.915 165.835 16.915C166.69 16.915 167.365 16.165 167.365 15.25C167.365 14.335 166.69 13.585 165.835 13.585Z" fill="black"/>
<path d="M173.125 1H153.025C151.33 1 149.95 2.38 149.95 4.09V24.37C149.95 26.08 151.33 27.46 153.025 27.46H170.035L169.24 24.685L171.16 26.47L172.975 28.15L176.2 31V4.09C176.2 2.38 174.82 1 173.125 1ZM167.335 20.59C167.335 20.59 166.795 19.945 166.345 19.375C168.31 18.82 169.06 17.59 169.06 17.59C168.445 17.995 167.86 18.28 167.335 18.475C166.585 18.79 165.865 19 165.16 19.12C163.72 19.39 162.4 19.315 161.275 19.105C160.42 18.94 159.685 18.7 159.07 18.46C158.725 18.325 158.35 18.16 157.975 17.95C157.93 17.92 157.885 17.905 157.84 17.875C157.81 17.86 157.795 17.845 157.78 17.83C157.51 17.68 157.36 17.575 157.36 17.575C157.36 17.575 158.08 18.775 159.985 19.345C159.535 19.915 158.98 20.59 158.98 20.59C155.665 20.485 154.405 18.31 154.405 18.31C154.405 13.48 156.565 9.565 156.565 9.565C158.725 7.945 160.78 7.99 160.78 7.99L160.93 8.17C158.23 8.95 156.985 10.135 156.985 10.135C156.985 10.135 157.315 9.955 157.87 9.7C159.475 8.995 160.75 8.8 161.275 8.755C161.365 8.74 161.44 8.725 161.53 8.725C162.445 8.605 163.48 8.575 164.56 8.695C165.985 8.86 167.515 9.28 169.075 10.135C169.075 10.135 167.89 9.01 165.34 8.23L165.55 7.99C165.55 7.99 167.605 7.945 169.765 9.565C169.765 9.565 171.925 13.48 171.925 18.31C171.925 18.31 170.65 20.485 167.335 20.59V20.59Z" fill="black"/>
<defs>
<clipPath id="clip0_438_4">
<rect width="30" height="30" fill="white" transform="translate(100)"/>
</clipPath>
</defs>
</svg>
