<svg width="500" height="500" viewBox="0 0 500 500" fill="none" xmlns="http://www.w3.org/2000/svg">
<path d="M42 20.1222C42 9.00902 33.0457 0 22 0C10.9543 0 2 9.00902 2 20.1222C2 30.1657 9.31367 38.4904 18.875 40V25.9388H13.7969V20.1222H18.875V15.689C18.875 10.6459 21.8609 7.86024 26.4293 7.86024C28.6168 7.86024 30.9062 8.25326 30.9062 8.25326V13.2052H28.3844C25.9 13.2052 25.125 14.7564 25.125 16.3493V20.1222H30.6719L29.7852 25.9388H25.125V40C34.6863 38.4904 42 30.1657 42 20.1222Z" fill="black"/>
<path d="M70 3.60156C75.3438 3.60156 75.9766 3.625 78.0781 3.71875C80.0313 3.80469 81.0859 4.13281 81.7891 4.40625C82.7188 4.76563 83.3906 5.20313 84.0859 5.89844C84.7891 6.60156 85.2188 7.26563 85.5781 8.19531C85.8516 8.89844 86.1797 9.96094 86.2656 11.9063C86.3594 14.0156 86.3828 14.6484 86.3828 19.9844C86.3828 25.3281 86.3594 25.9609 86.2656 28.0625C86.1797 30.0156 85.8516 31.0703 85.5781 31.7734C85.2188 32.7031 84.7813 33.375 84.0859 34.0703C83.3828 34.7734 82.7188 35.2031 81.7891 35.5625C81.0859 35.8359 80.0234 36.1641 78.0781 36.25C75.9688 36.3438 75.3359 36.3672 70 36.3672C64.6563 36.3672 64.0234 36.3438 61.9219 36.25C59.9688 36.1641 58.9141 35.8359 58.2109 35.5625C57.2813 35.2031 56.6094 34.7656 55.9141 34.0703C55.2109 33.3672 54.7813 32.7031 54.4219 31.7734C54.1484 31.0703 53.8203 30.0078 53.7344 28.0625C53.6406 25.9531 53.6172 25.3203 53.6172 19.9844C53.6172 14.6406 53.6406 14.0078 53.7344 11.9063C53.8203 9.95312 54.1484 8.89844 54.4219 8.19531C54.7813 7.26563 55.2188 6.59375 55.9141 5.89844C56.6172 5.19531 57.2813 4.76563 58.2109 4.40625C58.9141 4.13281 59.9766 3.80469 61.9219 3.71875C64.0234 3.625 64.6563 3.60156 70 3.60156ZM70 0C64.5703 0 63.8906 0.0234375 61.7578 0.117188C59.6328 0.210938 58.1719 0.554687 56.9063 1.04687C55.5859 1.5625 54.4688 2.24219 53.3594 3.35938C52.2422 4.46875 51.5625 5.58594 51.0469 6.89844C50.5547 8.17188 50.2109 9.625 50.1172 11.75C50.0234 13.8906 50 14.5703 50 20C50 25.4297 50.0234 26.1094 50.1172 28.2422C50.2109 30.3672 50.5547 31.8281 51.0469 33.0938C51.5625 34.4141 52.2422 35.5313 53.3594 36.6406C54.4688 37.75 55.5859 38.4375 56.8984 38.9453C58.1719 39.4375 59.625 39.7813 61.75 39.875C63.8828 39.9688 64.5625 39.9922 69.9922 39.9922C75.4219 39.9922 76.1016 39.9688 78.2344 39.875C80.3594 39.7813 81.8203 39.4375 83.0859 38.9453C84.3984 38.4375 85.5156 37.75 86.625 36.6406C87.7344 35.5313 88.4219 34.4141 88.9297 33.1016C89.4219 31.8281 89.7656 30.375 89.8594 28.25C89.9531 26.1172 89.9766 25.4375 89.9766 20.0078C89.9766 14.5781 89.9531 13.8984 89.8594 11.7656C89.7656 9.64063 89.4219 8.17969 88.9297 6.91406C88.4375 5.58594 87.7578 4.46875 86.6406 3.35938C85.5313 2.25 84.4141 1.5625 83.1016 1.05469C81.8281 0.5625 80.375 0.21875 78.25 0.125C76.1094 0.0234375 75.4297 0 70 0Z" fill="black"/>
<path d="M70 9.72656C64.3281 9.72656 59.7266 14.3281 59.7266 20C59.7266 25.6719 64.3281 30.2734 70 30.2734C75.6719 30.2734 80.2734 25.6719 80.2734 20C80.2734 14.3281 75.6719 9.72656 70 9.72656ZM70 26.6641C66.3203 26.6641 63.3359 23.6797 63.3359 20C63.3359 16.3203 66.3203 13.3359 70 13.3359C73.6797 13.3359 76.6641 16.3203 76.6641 20C76.6641 23.6797 73.6797 26.6641 70 26.6641Z" fill="black"/>
<path d="M83.0781 9.32019C83.0781 10.6483 82 11.7186 80.6797 11.7186C79.3516 11.7186 78.2812 10.6405 78.2812 9.32019C78.2812 7.99207 79.3594 6.92175 80.6797 6.92175C82 6.92175 83.0781 7.99988 83.0781 9.32019Z" fill="black"/>
<g clip-path="url(#clip0_438_4)">
<path fill-rule="evenodd" clip-rule="evenodd" d="M120 0.833374C115.252 0.835837 110.66 2.51747 107.045 5.57758C103.429 8.63769 101.026 12.8767 100.266 17.5367C99.5053 22.1967 100.437 26.9737 102.893 31.0137C105.35 35.0536 109.171 38.093 113.675 39.5883C114.668 39.7727 115.043 39.157 115.043 38.6334C115.043 38.1098 115.023 36.5917 115.016 34.9321C109.452 36.134 108.277 32.5842 108.277 32.5842C107.369 30.2791 106.058 29.6732 106.058 29.6732C104.243 28.4416 106.194 28.4647 106.194 28.4647C108.204 28.6063 109.26 30.5162 109.26 30.5162C111.042 33.5556 113.94 32.6764 115.079 32.1627C115.258 30.8751 115.778 29.9992 116.351 29.502C111.906 29.0014 107.237 27.2957 107.237 19.6757C107.209 17.6996 107.947 15.7885 109.297 14.3378C109.091 13.8373 108.406 11.8154 109.492 9.06909C109.492 9.06909 111.171 8.53563 114.993 11.1074C118.271 10.2161 121.73 10.2161 125.008 11.1074C128.826 8.53563 130.502 9.06909 130.502 9.06909C131.592 11.8088 130.906 13.8307 130.701 14.3378C132.055 15.7887 132.794 17.7031 132.764 19.6823C132.764 27.3187 128.085 29.0014 123.633 29.4921C124.349 30.1112 124.988 31.3197 124.988 33.1769C124.988 35.8376 124.965 37.9781 124.965 38.6334C124.965 39.1635 125.326 39.7826 126.339 39.5883C130.843 38.0928 134.665 35.0529 137.122 31.0123C139.578 26.9716 140.509 22.1939 139.748 17.5335C138.986 12.873 136.582 8.63397 132.966 5.57438C129.349 2.5148 124.756 0.834276 120.007 0.833374H120Z" fill="#191717"/>
<path d="M107.574 29.3867C107.531 29.4855 107.372 29.5151 107.243 29.4459C107.114 29.3768 107.018 29.2484 107.064 29.1463C107.11 29.0442 107.266 29.0179 107.395 29.087C107.524 29.1562 107.624 29.2879 107.574 29.3867Z" fill="#191717"/>
<path d="M108.385 30.2857C108.317 30.32 108.238 30.3296 108.163 30.3128C108.089 30.296 108.022 30.2538 107.975 30.1935C107.846 30.0552 107.819 29.8642 107.918 29.7786C108.018 29.693 108.197 29.7325 108.326 29.8708C108.455 30.0091 108.485 30.2001 108.385 30.2857Z" fill="#191717"/>
<path d="M109.174 31.4283C109.051 31.5139 108.843 31.4283 108.727 31.257C108.695 31.2263 108.669 31.1895 108.652 31.1487C108.634 31.108 108.625 31.0642 108.625 31.0199C108.625 30.9757 108.634 30.9319 108.652 30.8911C108.669 30.8504 108.695 30.8136 108.727 30.7828C108.849 30.7005 109.058 30.7828 109.174 30.9508C109.29 31.1187 109.293 31.3426 109.174 31.4283V31.4283Z" fill="#191717"/>
<path d="M110.243 32.5347C110.134 32.6566 109.912 32.6237 109.73 32.459C109.548 32.2944 109.505 32.0704 109.614 31.9519C109.723 31.8333 109.945 31.8663 110.134 32.0276C110.323 32.189 110.359 32.4162 110.243 32.5347V32.5347Z" fill="#191717"/>
<path d="M111.744 33.1802C111.694 33.3349 111.469 33.4041 111.244 33.3382C111.018 33.2724 110.869 33.0879 110.912 32.9299C110.955 32.7718 111.184 32.6994 111.412 32.7718C111.641 32.8443 111.787 33.0188 111.744 33.1802Z" fill="#191717"/>
<path d="M113.38 33.2922C113.38 33.4535 113.194 33.5918 112.956 33.5951C112.717 33.5984 112.522 33.4667 112.522 33.3053C112.522 33.144 112.707 33.0057 112.946 33.0024C113.184 32.9991 113.38 33.1275 113.38 33.2922Z" fill="#191717"/>
<path d="M114.903 33.0386C114.933 33.2 114.767 33.3679 114.529 33.4074C114.29 33.4469 114.082 33.3514 114.052 33.1934C114.022 33.0353 114.194 32.8641 114.426 32.8213C114.658 32.7785 114.873 32.8773 114.903 33.0386Z" fill="#191717"/>
</g>
<path d="M164.48 17.78C163.34 17.78 162.44 18.78 162.44 20C162.44 21.22 163.36 22.22 164.48 22.22C165.62 22.22 166.52 21.22 166.52 20C166.54 18.78 165.62 17.78 164.48 17.78ZM171.78 17.78C170.64 17.78 169.74 18.78 169.74 20C169.74 21.22 170.66 22.22 171.78 22.22C172.92 22.22 173.82 21.22 173.82 20C173.82 18.78 172.92 17.78 171.78 17.78Z" fill="black"/>
<path d="M181.5 1H154.7C152.44 1 150.6 2.84 150.6 5.12V32.16C150.6 34.44 152.44 36.28 154.7 36.28H177.38L176.32 32.58L178.88 34.96L181.3 37.2L185.6 41V5.12C185.6 2.84 183.76 1 181.5 1ZM173.78 27.12C173.78 27.12 173.06 26.26 172.46 25.5C175.08 24.76 176.08 23.12 176.08 23.12C175.26 23.66 174.48 24.04 173.78 24.3C172.78 24.72 171.82 25 170.88 25.16C168.96 25.52 167.2 25.42 165.7 25.14C164.56 24.92 163.58 24.6 162.76 24.28C162.3 24.1 161.8 23.88 161.3 23.6C161.24 23.56 161.18 23.54 161.12 23.5C161.08 23.48 161.06 23.46 161.04 23.44C160.68 23.24 160.48 23.1 160.48 23.1C160.48 23.1 161.44 24.7 163.98 25.46C163.38 26.22 162.64 27.12 162.64 27.12C158.22 26.98 156.54 24.08 156.54 24.08C156.54 17.64 159.42 12.42 159.42 12.42C162.3 10.26 165.04 10.32 165.04 10.32L165.24 10.56C161.64 11.6 159.98 13.18 159.98 13.18C159.98 13.18 160.42 12.94 161.16 12.6C163.3 11.66 165 11.4 165.7 11.34C165.82 11.32 165.92 11.3 166.04 11.3C167.26 11.14 168.64 11.1 170.08 11.26C171.98 11.48 174.02 12.04 176.1 13.18C176.1 13.18 174.52 11.68 171.12 10.64L171.4 10.32C171.4 10.32 174.14 10.26 177.02 12.42C177.02 12.42 179.9 17.64 179.9 24.08C179.9 24.08 178.2 26.98 173.78 27.12V27.12Z" fill="black"/>
<defs>
<clipPath id="clip0_438_4">
<rect width="40" height="40" fill="white" transform="translate(100)"/>
</clipPath>
</defs>
</svg>
